<mxfile host="app.diagrams.net" modified="2023-11-15T12:26:45.233Z" agent="Mozilla/5.0 (Windows NT 10.0; Win64; x64) AppleWebKit/537.36 (KHTML, like Gecko) Chrome/116.0.5845.837 YaBrowser/23.9.4.837 Yowser/2.5 Safari/537.36" etag="ppbbG7wRIjCIqNZPpTbt" version="22.1.1" type="device">
  <diagram name="Страница — 1" id="9onLeydxRtGeSM3ge2tl">
    <mxGraphModel dx="871" dy="500" grid="1" gridSize="10" guides="1" tooltips="1" connect="1" arrows="1" fold="1" page="1" pageScale="1" pageWidth="827" pageHeight="1169" math="0" shadow="0">
      <root>
        <mxCell id="0" />
        <mxCell id="1" parent="0" />
        <mxCell id="XQ71jPhlWH_h1e-fe5QS-3" value="банк" style="swimlane;horizontal=0;whiteSpace=wrap;html=1;" vertex="1" parent="1">
          <mxGeometry x="30" y="20" width="2340" height="200" as="geometry">
            <mxRectangle x="30" y="20" width="40" height="150" as="alternateBounds" />
          </mxGeometry>
        </mxCell>
        <mxCell id="XQ71jPhlWH_h1e-fe5QS-16" value="проверка корректности пин-кода" style="html=1;whiteSpace=wrap;" vertex="1" parent="XQ71jPhlWH_h1e-fe5QS-3">
          <mxGeometry x="370" y="75" width="110" height="50" as="geometry" />
        </mxCell>
        <mxCell id="XQ71jPhlWH_h1e-fe5QS-20" value="" style="endArrow=classic;html=1;rounded=0;entryX=0.5;entryY=0;entryDx=0;entryDy=0;entryPerimeter=0;" edge="1" parent="XQ71jPhlWH_h1e-fe5QS-3" target="XQ71jPhlWH_h1e-fe5QS-21">
          <mxGeometry width="50" height="50" relative="1" as="geometry">
            <mxPoint x="480" y="100" as="sourcePoint" />
            <mxPoint x="520" y="501" as="targetPoint" />
            <Array as="points">
              <mxPoint x="510" y="100" />
            </Array>
          </mxGeometry>
        </mxCell>
        <mxCell id="XQ71jPhlWH_h1e-fe5QS-35" value="проверка остатка на счете клиента" style="rounded=0;whiteSpace=wrap;html=1;" vertex="1" parent="XQ71jPhlWH_h1e-fe5QS-3">
          <mxGeometry x="890" y="70" width="120" height="60" as="geometry" />
        </mxCell>
        <mxCell id="XQ71jPhlWH_h1e-fe5QS-38" value="" style="endArrow=classic;html=1;rounded=0;entryX=0.5;entryY=0;entryDx=0;entryDy=0;entryPerimeter=0;" edge="1" parent="XQ71jPhlWH_h1e-fe5QS-3" target="XQ71jPhlWH_h1e-fe5QS-37">
          <mxGeometry width="50" height="50" relative="1" as="geometry">
            <mxPoint x="1010" y="100" as="sourcePoint" />
            <mxPoint x="1060" y="50" as="targetPoint" />
            <Array as="points">
              <mxPoint x="1040" y="100" />
            </Array>
          </mxGeometry>
        </mxCell>
        <mxCell id="XQ71jPhlWH_h1e-fe5QS-59" value="внесение наличных денег на счет клиента" style="html=1;whiteSpace=wrap;" vertex="1" parent="XQ71jPhlWH_h1e-fe5QS-3">
          <mxGeometry x="1700" y="70" width="110" height="50" as="geometry" />
        </mxCell>
        <mxCell id="XQ71jPhlWH_h1e-fe5QS-63" value="" style="endArrow=classic;html=1;rounded=0;entryX=0.5;entryY=0;entryDx=0;entryDy=0;" edge="1" parent="XQ71jPhlWH_h1e-fe5QS-3" target="XQ71jPhlWH_h1e-fe5QS-62">
          <mxGeometry width="50" height="50" relative="1" as="geometry">
            <mxPoint x="1810" y="100" as="sourcePoint" />
            <mxPoint x="1860" y="50" as="targetPoint" />
            <Array as="points">
              <mxPoint x="1875" y="100" />
            </Array>
          </mxGeometry>
        </mxCell>
        <mxCell id="XQ71jPhlWH_h1e-fe5QS-4" value="клиент" style="swimlane;horizontal=0;whiteSpace=wrap;html=1;" vertex="1" parent="1">
          <mxGeometry x="30" y="220" width="2340" height="200" as="geometry" />
        </mxCell>
        <mxCell id="XQ71jPhlWH_h1e-fe5QS-6" value="" style="ellipse;shape=doubleEllipse;html=1;dashed=0;whiteSpace=wrap;aspect=fixed;" vertex="1" parent="XQ71jPhlWH_h1e-fe5QS-4">
          <mxGeometry x="40" y="70" width="60" height="60" as="geometry" />
        </mxCell>
        <mxCell id="XQ71jPhlWH_h1e-fe5QS-8" value="" style="endArrow=classic;html=1;rounded=0;" edge="1" parent="XQ71jPhlWH_h1e-fe5QS-4">
          <mxGeometry width="50" height="50" relative="1" as="geometry">
            <mxPoint x="100" y="100" as="sourcePoint" />
            <mxPoint x="140" y="100" as="targetPoint" />
          </mxGeometry>
        </mxCell>
        <mxCell id="XQ71jPhlWH_h1e-fe5QS-9" value="вставить карту в банкомат" style="html=1;whiteSpace=wrap;" vertex="1" parent="XQ71jPhlWH_h1e-fe5QS-4">
          <mxGeometry x="140" y="75" width="110" height="50" as="geometry" />
        </mxCell>
        <mxCell id="XQ71jPhlWH_h1e-fe5QS-10" value="ввод пин-кода от карты" style="html=1;whiteSpace=wrap;" vertex="1" parent="XQ71jPhlWH_h1e-fe5QS-4">
          <mxGeometry x="290" y="75" width="110" height="50" as="geometry" />
        </mxCell>
        <mxCell id="XQ71jPhlWH_h1e-fe5QS-11" value="" style="endArrow=classic;html=1;rounded=0;" edge="1" parent="XQ71jPhlWH_h1e-fe5QS-4">
          <mxGeometry width="50" height="50" relative="1" as="geometry">
            <mxPoint x="250" y="99.66000000000003" as="sourcePoint" />
            <mxPoint x="290" y="99.66000000000003" as="targetPoint" />
          </mxGeometry>
        </mxCell>
        <mxCell id="XQ71jPhlWH_h1e-fe5QS-12" value="" style="endArrow=classic;html=1;rounded=0;entryX=0.5;entryY=0;entryDx=0;entryDy=0;" edge="1" parent="XQ71jPhlWH_h1e-fe5QS-4" target="XQ71jPhlWH_h1e-fe5QS-13">
          <mxGeometry width="50" height="50" relative="1" as="geometry">
            <mxPoint x="344.66" y="125" as="sourcePoint" />
            <mxPoint x="345" y="290" as="targetPoint" />
          </mxGeometry>
        </mxCell>
        <mxCell id="XQ71jPhlWH_h1e-fe5QS-27" value="" style="strokeWidth=2;html=1;shape=mxgraph.flowchart.decision;whiteSpace=wrap;" vertex="1" parent="XQ71jPhlWH_h1e-fe5QS-4">
          <mxGeometry x="530" y="50" width="100" height="100" as="geometry" />
        </mxCell>
        <mxCell id="XQ71jPhlWH_h1e-fe5QS-31" value="выдача наличных денег" style="html=1;verticalAlign=bottom;endArrow=block;curved=0;rounded=0;" edge="1" parent="XQ71jPhlWH_h1e-fe5QS-4" source="XQ71jPhlWH_h1e-fe5QS-27">
          <mxGeometry x="-1" y="-28" width="80" relative="1" as="geometry">
            <mxPoint x="600" y="-120" as="sourcePoint" />
            <mxPoint x="680" y="100" as="targetPoint" />
            <mxPoint x="-20" y="-8" as="offset" />
          </mxGeometry>
        </mxCell>
        <mxCell id="XQ71jPhlWH_h1e-fe5QS-32" value="ввод необходимой суммы денег" style="rounded=0;whiteSpace=wrap;html=1;" vertex="1" parent="XQ71jPhlWH_h1e-fe5QS-4">
          <mxGeometry x="677" y="70" width="120" height="60" as="geometry" />
        </mxCell>
        <mxCell id="XQ71jPhlWH_h1e-fe5QS-33" value="" style="endArrow=classic;html=1;rounded=0;entryX=0.5;entryY=0;entryDx=0;entryDy=0;" edge="1" parent="XQ71jPhlWH_h1e-fe5QS-4" target="XQ71jPhlWH_h1e-fe5QS-34">
          <mxGeometry width="50" height="50" relative="1" as="geometry">
            <mxPoint x="800" y="100" as="sourcePoint" />
            <mxPoint x="840" y="300" as="targetPoint" />
            <Array as="points">
              <mxPoint x="875" y="100" />
            </Array>
          </mxGeometry>
        </mxCell>
        <mxCell id="XQ71jPhlWH_h1e-fe5QS-41" value="получение наличных денег и чека с подтверждением операции" style="rounded=0;whiteSpace=wrap;html=1;" vertex="1" parent="XQ71jPhlWH_h1e-fe5QS-4">
          <mxGeometry x="1120" y="70" width="120" height="60" as="geometry" />
        </mxCell>
        <mxCell id="XQ71jPhlWH_h1e-fe5QS-43" value="получение карты" style="rounded=0;whiteSpace=wrap;html=1;" vertex="1" parent="XQ71jPhlWH_h1e-fe5QS-4">
          <mxGeometry x="1285" y="70" width="120" height="60" as="geometry" />
        </mxCell>
        <mxCell id="XQ71jPhlWH_h1e-fe5QS-44" value="" style="endArrow=classic;html=1;rounded=0;entryX=0;entryY=0.5;entryDx=0;entryDy=0;" edge="1" parent="XQ71jPhlWH_h1e-fe5QS-4" target="XQ71jPhlWH_h1e-fe5QS-43">
          <mxGeometry width="50" height="50" relative="1" as="geometry">
            <mxPoint x="1240" y="100" as="sourcePoint" />
            <mxPoint x="1290" y="50" as="targetPoint" />
          </mxGeometry>
        </mxCell>
        <mxCell id="XQ71jPhlWH_h1e-fe5QS-48" value="внесение наличных денег" style="html=1;verticalAlign=bottom;endArrow=block;curved=0;rounded=0;entryX=0.5;entryY=0;entryDx=0;entryDy=0;" edge="1" parent="XQ71jPhlWH_h1e-fe5QS-4" target="XQ71jPhlWH_h1e-fe5QS-50">
          <mxGeometry x="-0.9406" y="10" width="80" relative="1" as="geometry">
            <mxPoint x="580" y="50" as="sourcePoint" />
            <mxPoint x="1580" y="40" as="targetPoint" />
            <Array as="points">
              <mxPoint x="580" y="20" />
              <mxPoint x="1505" y="20" />
            </Array>
            <mxPoint x="10" y="-10" as="offset" />
          </mxGeometry>
        </mxCell>
        <mxCell id="XQ71jPhlWH_h1e-fe5QS-50" value="внесение наличных денег" style="html=1;whiteSpace=wrap;" vertex="1" parent="XQ71jPhlWH_h1e-fe5QS-4">
          <mxGeometry x="1450" y="75" width="110" height="50" as="geometry" />
        </mxCell>
        <mxCell id="XQ71jPhlWH_h1e-fe5QS-65" value="получение чека с подтверждением операции" style="html=1;whiteSpace=wrap;" vertex="1" parent="XQ71jPhlWH_h1e-fe5QS-4">
          <mxGeometry x="1910" y="80" width="110" height="50" as="geometry" />
        </mxCell>
        <mxCell id="XQ71jPhlWH_h1e-fe5QS-66" value="" style="endArrow=classic;html=1;rounded=0;entryX=0;entryY=0.5;entryDx=0;entryDy=0;exitX=1;exitY=0.5;exitDx=0;exitDy=0;" edge="1" parent="XQ71jPhlWH_h1e-fe5QS-4" source="XQ71jPhlWH_h1e-fe5QS-65" target="XQ71jPhlWH_h1e-fe5QS-67">
          <mxGeometry width="50" height="50" relative="1" as="geometry">
            <mxPoint x="2020" y="100" as="sourcePoint" />
            <mxPoint x="2070" y="50" as="targetPoint" />
          </mxGeometry>
        </mxCell>
        <mxCell id="XQ71jPhlWH_h1e-fe5QS-67" value="получение карты" style="html=1;whiteSpace=wrap;" vertex="1" parent="XQ71jPhlWH_h1e-fe5QS-4">
          <mxGeometry x="2070" y="80" width="110" height="50" as="geometry" />
        </mxCell>
        <mxCell id="XQ71jPhlWH_h1e-fe5QS-68" value="" style="endArrow=classic;html=1;rounded=0;entryX=0.5;entryY=0;entryDx=0;entryDy=0;entryPerimeter=0;" edge="1" parent="XQ71jPhlWH_h1e-fe5QS-4" target="XQ71jPhlWH_h1e-fe5QS-69">
          <mxGeometry width="50" height="50" relative="1" as="geometry">
            <mxPoint x="2180" y="100" as="sourcePoint" />
            <mxPoint x="2230" y="50" as="targetPoint" />
            <Array as="points">
              <mxPoint x="2285" y="100" />
            </Array>
          </mxGeometry>
        </mxCell>
        <mxCell id="XQ71jPhlWH_h1e-fe5QS-5" value="банкомат" style="swimlane;horizontal=0;whiteSpace=wrap;html=1;" vertex="1" parent="1">
          <mxGeometry x="30" y="420" width="2340" height="200" as="geometry" />
        </mxCell>
        <mxCell id="XQ71jPhlWH_h1e-fe5QS-7" value="" style="points=[[0.145,0.145,0],[0.5,0,0],[0.855,0.145,0],[1,0.5,0],[0.855,0.855,0],[0.5,1,0],[0.145,0.855,0],[0,0.5,0]];shape=mxgraph.bpmn.event;html=1;verticalLabelPosition=bottom;labelBackgroundColor=#ffffff;verticalAlign=top;align=center;perimeter=ellipsePerimeter;outlineConnect=0;aspect=fixed;outline=end;symbol=terminate2;" vertex="1" parent="XQ71jPhlWH_h1e-fe5QS-5">
          <mxGeometry x="1320" y="75" width="50" height="50" as="geometry" />
        </mxCell>
        <mxCell id="XQ71jPhlWH_h1e-fe5QS-13" value="отправка запроса в банк на проверку корректности пин-кода" style="html=1;whiteSpace=wrap;" vertex="1" parent="XQ71jPhlWH_h1e-fe5QS-5">
          <mxGeometry x="290" y="75" width="110" height="50" as="geometry" />
        </mxCell>
        <mxCell id="XQ71jPhlWH_h1e-fe5QS-14" value="" style="endArrow=classic;html=1;rounded=0;entryX=0.5;entryY=1;entryDx=0;entryDy=0;" edge="1" parent="XQ71jPhlWH_h1e-fe5QS-5" target="XQ71jPhlWH_h1e-fe5QS-16">
          <mxGeometry width="50" height="50" relative="1" as="geometry">
            <mxPoint x="400" y="100" as="sourcePoint" />
            <mxPoint x="420" y="-250" as="targetPoint" />
            <Array as="points">
              <mxPoint x="430" y="100" />
            </Array>
          </mxGeometry>
        </mxCell>
        <mxCell id="XQ71jPhlWH_h1e-fe5QS-21" value="" style="strokeWidth=2;html=1;shape=mxgraph.flowchart.decision;whiteSpace=wrap;" vertex="1" parent="XQ71jPhlWH_h1e-fe5QS-5">
          <mxGeometry x="460" y="50" width="100" height="100" as="geometry" />
        </mxCell>
        <mxCell id="XQ71jPhlWH_h1e-fe5QS-22" value="неверный пин-код" style="html=1;verticalAlign=bottom;endArrow=block;curved=0;rounded=0;entryX=0.5;entryY=1;entryDx=0;entryDy=0;entryPerimeter=0;" edge="1" parent="XQ71jPhlWH_h1e-fe5QS-5" target="XQ71jPhlWH_h1e-fe5QS-24">
          <mxGeometry width="80" relative="1" as="geometry">
            <mxPoint x="510" y="150" as="sourcePoint" />
            <mxPoint x="650" y="130" as="targetPoint" />
            <Array as="points">
              <mxPoint x="645" y="150" />
            </Array>
          </mxGeometry>
        </mxCell>
        <mxCell id="XQ71jPhlWH_h1e-fe5QS-23" value="пин-код введен верно" style="html=1;verticalAlign=bottom;endArrow=block;curved=0;rounded=0;entryX=0.5;entryY=1;entryDx=0;entryDy=0;entryPerimeter=0;" edge="1" parent="XQ71jPhlWH_h1e-fe5QS-5" target="XQ71jPhlWH_h1e-fe5QS-27">
          <mxGeometry x="-0.3636" width="80" relative="1" as="geometry">
            <mxPoint x="560" y="99.5" as="sourcePoint" />
            <mxPoint x="580" y="-100" as="targetPoint" />
            <Array as="points">
              <mxPoint x="580" y="100" />
            </Array>
            <mxPoint as="offset" />
          </mxGeometry>
        </mxCell>
        <mxCell id="XQ71jPhlWH_h1e-fe5QS-24" value="" style="points=[[0.145,0.145,0],[0.5,0,0],[0.855,0.145,0],[1,0.5,0],[0.855,0.855,0],[0.5,1,0],[0.145,0.855,0],[0,0.5,0]];shape=mxgraph.bpmn.event;html=1;verticalLabelPosition=bottom;labelBackgroundColor=#ffffff;verticalAlign=top;align=center;perimeter=ellipsePerimeter;outlineConnect=0;aspect=fixed;outline=end;symbol=terminate2;" vertex="1" parent="XQ71jPhlWH_h1e-fe5QS-5">
          <mxGeometry x="620" y="75" width="50" height="50" as="geometry" />
        </mxCell>
        <mxCell id="XQ71jPhlWH_h1e-fe5QS-25" value="отказ в обслуживании клиента" style="shape=note;whiteSpace=wrap;html=1;backgroundOutline=1;darkOpacity=0.05;" vertex="1" parent="XQ71jPhlWH_h1e-fe5QS-5">
          <mxGeometry x="707" y="72.5" width="90" height="55" as="geometry" />
        </mxCell>
        <mxCell id="XQ71jPhlWH_h1e-fe5QS-26" value="" style="endArrow=classic;html=1;rounded=0;" edge="1" parent="XQ71jPhlWH_h1e-fe5QS-5" target="XQ71jPhlWH_h1e-fe5QS-25">
          <mxGeometry width="50" height="50" relative="1" as="geometry">
            <mxPoint x="670" y="100" as="sourcePoint" />
            <mxPoint x="720" y="50" as="targetPoint" />
          </mxGeometry>
        </mxCell>
        <mxCell id="XQ71jPhlWH_h1e-fe5QS-34" value="отправка запроса в банк на подтверждение операции" style="html=1;whiteSpace=wrap;" vertex="1" parent="XQ71jPhlWH_h1e-fe5QS-5">
          <mxGeometry x="820" y="75" width="110" height="50" as="geometry" />
        </mxCell>
        <mxCell id="XQ71jPhlWH_h1e-fe5QS-36" value="" style="endArrow=classic;html=1;rounded=0;entryX=0.5;entryY=1;entryDx=0;entryDy=0;" edge="1" parent="XQ71jPhlWH_h1e-fe5QS-5" target="XQ71jPhlWH_h1e-fe5QS-35">
          <mxGeometry width="50" height="50" relative="1" as="geometry">
            <mxPoint x="930" y="100" as="sourcePoint" />
            <mxPoint x="950" y="-240" as="targetPoint" />
            <Array as="points">
              <mxPoint x="950" y="100" />
            </Array>
          </mxGeometry>
        </mxCell>
        <mxCell id="XQ71jPhlWH_h1e-fe5QS-37" value="" style="strokeWidth=2;html=1;shape=mxgraph.flowchart.decision;whiteSpace=wrap;" vertex="1" parent="XQ71jPhlWH_h1e-fe5QS-5">
          <mxGeometry x="990" y="50" width="100" height="100" as="geometry" />
        </mxCell>
        <mxCell id="XQ71jPhlWH_h1e-fe5QS-39" value="остаток положительный" style="html=1;verticalAlign=bottom;endArrow=block;curved=0;rounded=0;entryX=0.5;entryY=1;entryDx=0;entryDy=0;" edge="1" parent="XQ71jPhlWH_h1e-fe5QS-5" target="XQ71jPhlWH_h1e-fe5QS-40">
          <mxGeometry x="-0.125" y="-20" width="80" relative="1" as="geometry">
            <mxPoint x="1040" y="150" as="sourcePoint" />
            <mxPoint x="1120" y="150" as="targetPoint" />
            <Array as="points">
              <mxPoint x="1180" y="150" />
            </Array>
            <mxPoint x="-1" as="offset" />
          </mxGeometry>
        </mxCell>
        <mxCell id="XQ71jPhlWH_h1e-fe5QS-40" value="выдача наличных денег и чека с подтверждением операции" style="rounded=0;whiteSpace=wrap;html=1;" vertex="1" parent="XQ71jPhlWH_h1e-fe5QS-5">
          <mxGeometry x="1120" y="70" width="120" height="60" as="geometry" />
        </mxCell>
        <mxCell id="XQ71jPhlWH_h1e-fe5QS-42" value="" style="endArrow=classic;html=1;rounded=0;entryX=0.5;entryY=1;entryDx=0;entryDy=0;" edge="1" parent="XQ71jPhlWH_h1e-fe5QS-5" target="XQ71jPhlWH_h1e-fe5QS-41">
          <mxGeometry width="50" height="50" relative="1" as="geometry">
            <mxPoint x="1180" y="70" as="sourcePoint" />
            <mxPoint x="1230" y="20" as="targetPoint" />
          </mxGeometry>
        </mxCell>
        <mxCell id="XQ71jPhlWH_h1e-fe5QS-51" value="проверка подлинности наличных денег" style="html=1;whiteSpace=wrap;" vertex="1" parent="XQ71jPhlWH_h1e-fe5QS-5">
          <mxGeometry x="1450" y="73" width="110" height="50" as="geometry" />
        </mxCell>
        <mxCell id="XQ71jPhlWH_h1e-fe5QS-53" value="" style="strokeWidth=2;html=1;shape=mxgraph.flowchart.decision;whiteSpace=wrap;" vertex="1" parent="XQ71jPhlWH_h1e-fe5QS-5">
          <mxGeometry x="1624" y="50" width="100" height="100" as="geometry" />
        </mxCell>
        <mxCell id="XQ71jPhlWH_h1e-fe5QS-54" value="" style="endArrow=classic;html=1;rounded=0;entryX=0;entryY=0.5;entryDx=0;entryDy=0;entryPerimeter=0;" edge="1" parent="XQ71jPhlWH_h1e-fe5QS-5" target="XQ71jPhlWH_h1e-fe5QS-53">
          <mxGeometry width="50" height="50" relative="1" as="geometry">
            <mxPoint x="1560" y="100" as="sourcePoint" />
            <mxPoint x="1620" y="100" as="targetPoint" />
          </mxGeometry>
        </mxCell>
        <mxCell id="XQ71jPhlWH_h1e-fe5QS-55" value="обнаружение поддельных купюр" style="html=1;verticalAlign=bottom;endArrow=block;curved=0;rounded=0;entryX=0.5;entryY=1;entryDx=0;entryDy=0;entryPerimeter=0;exitX=0.5;exitY=1;exitDx=0;exitDy=0;exitPerimeter=0;" edge="1" parent="XQ71jPhlWH_h1e-fe5QS-5" source="XQ71jPhlWH_h1e-fe5QS-53" target="XQ71jPhlWH_h1e-fe5QS-56">
          <mxGeometry width="80" relative="1" as="geometry">
            <mxPoint x="1690" y="150" as="sourcePoint" />
            <mxPoint x="1820" y="130" as="targetPoint" />
            <Array as="points">
              <mxPoint x="2045" y="150" />
            </Array>
          </mxGeometry>
        </mxCell>
        <mxCell id="XQ71jPhlWH_h1e-fe5QS-56" value="" style="points=[[0.145,0.145,0],[0.5,0,0],[0.855,0.145,0],[1,0.5,0],[0.855,0.855,0],[0.5,1,0],[0.145,0.855,0],[0,0.5,0]];shape=mxgraph.bpmn.event;html=1;verticalLabelPosition=bottom;labelBackgroundColor=#ffffff;verticalAlign=top;align=center;perimeter=ellipsePerimeter;outlineConnect=0;aspect=fixed;outline=end;symbol=terminate2;" vertex="1" parent="XQ71jPhlWH_h1e-fe5QS-5">
          <mxGeometry x="2020" y="70" width="50" height="50" as="geometry" />
        </mxCell>
        <mxCell id="XQ71jPhlWH_h1e-fe5QS-57" value="отказ в операции, вызов охраны и спец. служб" style="shape=note;whiteSpace=wrap;html=1;backgroundOutline=1;darkOpacity=0.05;" vertex="1" parent="XQ71jPhlWH_h1e-fe5QS-5">
          <mxGeometry x="2110" y="65" width="120" height="70" as="geometry" />
        </mxCell>
        <mxCell id="XQ71jPhlWH_h1e-fe5QS-58" value="" style="endArrow=classic;html=1;rounded=0;entryX=0;entryY=0.5;entryDx=0;entryDy=0;entryPerimeter=0;" edge="1" parent="XQ71jPhlWH_h1e-fe5QS-5" target="XQ71jPhlWH_h1e-fe5QS-57">
          <mxGeometry width="50" height="50" relative="1" as="geometry">
            <mxPoint x="2070" y="100" as="sourcePoint" />
            <mxPoint x="2120" y="50" as="targetPoint" />
          </mxGeometry>
        </mxCell>
        <mxCell id="XQ71jPhlWH_h1e-fe5QS-60" value="просьба ввести сумму меньше" style="html=1;verticalAlign=bottom;endArrow=block;curved=0;rounded=0;entryX=0.5;entryY=0;entryDx=0;entryDy=0;" edge="1" parent="XQ71jPhlWH_h1e-fe5QS-5" target="XQ71jPhlWH_h1e-fe5QS-32">
          <mxGeometry x="-0.8445" width="80" relative="1" as="geometry">
            <mxPoint x="1090" y="100" as="sourcePoint" />
            <mxPoint x="1090" y="-100" as="targetPoint" />
            <Array as="points">
              <mxPoint x="1090" y="-160" />
              <mxPoint x="737" y="-160" />
            </Array>
            <mxPoint as="offset" />
          </mxGeometry>
        </mxCell>
        <mxCell id="XQ71jPhlWH_h1e-fe5QS-61" value="купюры настоящие" style="html=1;verticalAlign=bottom;endArrow=block;curved=0;rounded=0;entryX=0.5;entryY=1;entryDx=0;entryDy=0;" edge="1" parent="XQ71jPhlWH_h1e-fe5QS-5" target="XQ71jPhlWH_h1e-fe5QS-59">
          <mxGeometry x="-0.6867" width="80" relative="1" as="geometry">
            <mxPoint x="1720" y="100" as="sourcePoint" />
            <mxPoint x="1770" y="100" as="targetPoint" />
            <Array as="points">
              <mxPoint x="1755" y="100" />
            </Array>
            <mxPoint y="1" as="offset" />
          </mxGeometry>
        </mxCell>
        <mxCell id="XQ71jPhlWH_h1e-fe5QS-62" value="выдача чека с подтверждением операции" style="html=1;whiteSpace=wrap;" vertex="1" parent="XQ71jPhlWH_h1e-fe5QS-5">
          <mxGeometry x="1820" y="70" width="110" height="50" as="geometry" />
        </mxCell>
        <mxCell id="XQ71jPhlWH_h1e-fe5QS-64" value="" style="endArrow=classic;html=1;rounded=0;entryX=0.5;entryY=1;entryDx=0;entryDy=0;" edge="1" parent="XQ71jPhlWH_h1e-fe5QS-5" target="XQ71jPhlWH_h1e-fe5QS-65">
          <mxGeometry width="50" height="50" relative="1" as="geometry">
            <mxPoint x="1930" y="100" as="sourcePoint" />
            <mxPoint x="1990" y="-20" as="targetPoint" />
            <Array as="points">
              <mxPoint x="1965" y="100" />
            </Array>
          </mxGeometry>
        </mxCell>
        <mxCell id="XQ71jPhlWH_h1e-fe5QS-69" value="" style="points=[[0.145,0.145,0],[0.5,0,0],[0.855,0.145,0],[1,0.5,0],[0.855,0.855,0],[0.5,1,0],[0.145,0.855,0],[0,0.5,0]];shape=mxgraph.bpmn.event;html=1;verticalLabelPosition=bottom;labelBackgroundColor=#ffffff;verticalAlign=top;align=center;perimeter=ellipsePerimeter;outlineConnect=0;aspect=fixed;outline=end;symbol=terminate2;" vertex="1" parent="XQ71jPhlWH_h1e-fe5QS-5">
          <mxGeometry x="2260" y="73" width="50" height="50" as="geometry" />
        </mxCell>
        <mxCell id="XQ71jPhlWH_h1e-fe5QS-17" value="" style="endArrow=classic;html=1;rounded=0;" edge="1" parent="1">
          <mxGeometry width="50" height="50" relative="1" as="geometry">
            <mxPoint x="460" y="270" as="sourcePoint" />
            <mxPoint x="460" y="270" as="targetPoint" />
          </mxGeometry>
        </mxCell>
        <mxCell id="XQ71jPhlWH_h1e-fe5QS-47" value="" style="endArrow=classic;html=1;rounded=0;exitX=0.5;exitY=1;exitDx=0;exitDy=0;" edge="1" parent="1" source="XQ71jPhlWH_h1e-fe5QS-43" target="XQ71jPhlWH_h1e-fe5QS-7">
          <mxGeometry width="50" height="50" relative="1" as="geometry">
            <mxPoint x="1370" y="350" as="sourcePoint" />
            <mxPoint x="1370" y="490" as="targetPoint" />
          </mxGeometry>
        </mxCell>
        <mxCell id="XQ71jPhlWH_h1e-fe5QS-52" value="" style="endArrow=classic;html=1;rounded=0;entryX=0.5;entryY=0;entryDx=0;entryDy=0;exitX=0.5;exitY=1;exitDx=0;exitDy=0;" edge="1" parent="1" source="XQ71jPhlWH_h1e-fe5QS-50" target="XQ71jPhlWH_h1e-fe5QS-51">
          <mxGeometry width="50" height="50" relative="1" as="geometry">
            <mxPoint x="1530" y="390" as="sourcePoint" />
            <mxPoint x="1580" y="290" as="targetPoint" />
          </mxGeometry>
        </mxCell>
      </root>
    </mxGraphModel>
  </diagram>
</mxfile>
